<?xml version="1.0" encoding="utf-8"?><svg xml:space="preserve" viewBox="0 0 100 100" y="0" x="0" xmlns="http://www.w3.org/2000/svg" id="圖層_1" version="1.1" width="47px" height="47px" xmlns:xlink="http://www.w3.org/1999/xlink" style="width:100%;height:100%;background-size:initial;background-repeat-y:initial;background-repeat-x:initial;background-position-y:initial;background-position-x:initial;background-origin:initial;background-image:initial;background-color:rgb(248, 249, 250);background-clip:initial;background-attachment:initial;animation-play-state:paused" ><g class="ldl-scale" style="transform-origin:50% 50%;transform:rotate(0deg) scale(0.8, 0.8);animation-play-state:paused" ><path fill="#d1d1d1" d="M46.587 86.336c-2.416 0-3.795-.569-4.611-1.905-1.286-2.115-.107-3.911 1.485-5.907-2.801-.312-5.451-.601-8.061-.601-.919 0-1.762.036-2.577.11-1.532.138-3.288.979-5.147 1.869-.952.456-1.937.928-2.965 1.342-.517.208-1.041.44-1.596.685-1.196.529-2.432 1.076-3.811 1.479l-2.653.775a3.882 3.882 0 0 1-.236.06c-.8.175-1.586.264-2.334.264-2.323 0-4.256-.847-5.445-2.386-1.069-1.385-1.398-3.145-.925-4.957a3.528 3.528 0 0 1 1.61-2.142l1.573-.937c3.034-1.807 5.787-4.278 8.665-7.776 4.1-4.983 9.706-8.302 17.136-10.145 2.825-.701 6.149-1.553 9.375-2.545 3.864-1.189 6.854-3.644 9.142-7.505.937-1.58 1.977-3.049 2.982-4.47.68-.96 1.321-1.866 1.925-2.794 2.918-4.483 7.251-7.081 13.247-7.939.253-.036.507-.074.761-.114a10.366 10.366 0 0 1-2.46-6.716c0-5.744 4.673-10.417 10.417-10.417 5.743 0 10.417 4.673 10.417 10.417 0 4.527-2.902 8.389-6.944 9.822a5.61 5.61 0 0 1-.13 2.262c-.577 2.234-1.655 4.464-3.114 6.45-.791 1.077-1.735 1.836-2.569 2.506-.54.435-1.1.884-1.314 1.207-1.06 1.6-1.973 3.555-2.641 5.653-1.702 5.348-2.929 9.744-3.862 13.832-.502 2.201-.544 3.122-.546 3.329.014.12.022.241.023.361.019 1.289 1.605 2.847 2.655 3.879 1.195 1.173 3 2.947 1.985 5.429-.372.91-1.406 2.436-4.15 2.436h-.001c-1.195 0-3.081-.248-6.729-.887a3.52 3.52 0 0 1-1.436-.599c-.006-.004-.676-.478-2.189-1.481-.2-.133-.371-.242-.515-.331l-.086.125c-2.728 4.074-6.575 6.655-11.762 7.888l-1.021.243a3.419 3.419 0 0 1-.472.079c-.355.034-.724.052-1.096.052z" style="fill:rgb(47, 46, 65);animation-play-state:paused" ></path>
<path fill="#474747" d="M82.084 17.197a6.884 6.884 0 1 1 0 13.768 6.884 6.884 0 0 1 0-13.768zm-2.469 16.185c-1.908.383-3.823.75-5.749 1.026-4.483.642-8.235 2.448-10.787 6.369-1.568 2.407-3.366 4.671-4.828 7.137-2.62 4.422-6.226 7.568-11.143 9.081-3.156.971-6.358 1.802-9.563 2.598-5.981 1.483-11.281 4.128-15.259 8.961-2.763 3.357-5.796 6.308-9.585 8.566l-1.573.937c-.567 2.173 1.472 3.404 4.532 2.735l2.652-.774c1.744-.51 3.385-1.37 5.08-2.052 3.029-1.219 5.997-3.171 9.113-3.452 4.491-.405 9.106.276 13.642.75 2.706.283 3.025 1.38 1.387 3.693l-.836 1.181c-1.004 1.24-1.773 2.342-1.708 2.449.065.107 1.187.294 2.347.18l1.022-.243c3.993-.95 7.25-2.841 9.644-6.417 1.801-2.689 2.857-2.519 5.488-.773 1.597 1.059 2.281 1.545 2.281 1.545 14.397 2.517 2.194-.877 2.1-7.324 0 0-.211-.93.61-4.527 1.085-4.76 2.458-9.464 3.939-14.119.726-2.28 1.745-4.544 3.062-6.532.996-1.503 2.903-2.387 3.982-3.856 1.138-1.546 2.062-3.387 2.54-5.239.401-1.554-.776-2.224-2.39-1.9zm-7.965 7.387a1.75 1.75 0 1 1-.001-3.499 1.75 1.75 0 0 1 .001 3.499z" style="fill:rgb(71, 71, 71);animation-play-state:paused" ></path>
<metadata xmlns:d="https://loading.io/stock/" style="animation-play-state:paused" ><d:name style="animation-play-state:paused" >seal</d:name>
<d:tags style="animation-play-state:paused" >water park,marine,sea,aquarium,seal,map</d:tags>
<d:license style="animation-play-state:paused" >free</d:license>
<d:slug style="animation-play-state:paused" >16j8rn</d:slug></metadata></g><!-- generated by https://loading.io/ --></svg>